<svg id="Layer_1" data-name="Layer 1" xmlns="http://www.w3.org/2000/svg" width="44.37" height="40.01" viewBox="0 0 44.37 40.01">
  <defs>
    <style>
      .cls-1 {
        fill: #ff2e4a;
      }
    </style>
  </defs>
  <path class="cls-1" d="M46.11,16.54C44.74,6.63,37,4,33,4h0c-4.11-.35-7.16,2.15-9,4-1.83-1.78-4.83-4.31-9-4h0C11,4,3.26,6.62,1.89,16.54c-.08.62-.69,6.12,3.67,12.92,4.49,7,14.53,12.91,17.48,14.15l1,.4,1-.4c2.95-1.25,13-7.15,17.48-14.14,4.36-6.8,3.75-12.31,3.67-12.93ZM38,27.16c-3.16,4.91-10.4,9.67-13.8,11.4-3.4-1.73-10.65-6.49-13.8-11.4C7.1,22,7.6,17.9,7.6,17.9a8.87,8.87,0,0,1,8.28-8A7.82,7.82,0,0,1,22.45,13l.72.94,1.12,1.5,1-1.44.76-1a7.86,7.86,0,0,1,6.52-3.16,8.44,8.44,0,0,1,8.26,8c0,.16.51,4-2.83,9.23Z" transform="translate(-1.82 -4)"/>
</svg>
